HIERARCHY
ROOT hip
{
	OFFSET 0.000000 0.000000 0.000000 
	CHANNELS 6 Xposition Yposition Zposition Xrotation Zrotation Yrotation
	JOINT abdomen
	{
		OFFSET 0.000000 3.402643 0.000000 
		CHANNELS 3 Xrotation Zrotation Yrotation
		JOINT chest
		{
			OFFSET 0.000000 8.438565 -0.680529 
			CHANNELS 3 Xrotation Zrotation Yrotation
			JOINT neck
			{
				OFFSET 0.000000 10.207942 -0.272212 
				CHANNELS 3 Xrotation Zrotation Yrotation
				JOINT head
				{
					OFFSET 0.000000 3.130431 0.000000 
					CHANNELS 3 Xrotation Zrotation Yrotation
					End Site
					{
						OFFSET 0.000000 3.130435 0.000000 
					}
				}
			}
			JOINT lCollar
			{
				OFFSET 3.470700 6.669187 -0.816635 
				CHANNELS 3 Yrotation Zrotation Xrotation
				JOINT lShldr
				{
					OFFSET 3.198488 0.000000 0.000000 
					CHANNELS 3 Zrotation Yrotation Xrotation
					JOINT lForeArm
					{
						OFFSET 10.139888 0.000000 0.000000 
						CHANNELS 3 Yrotation Zrotation Xrotation
						JOINT lHand
						{
							OFFSET 8.370511 0.000000 0.000000 
							CHANNELS 3 Zrotation Yrotation Xrotation
							End Site
							{
								OFFSET 4.083176 0.000000 0.000000 
							}
						}
					}
				}
			}
			JOINT rCollar
			{
				OFFSET -3.470700 6.669187 -0.816635 
				CHANNELS 3 Yrotation Zrotation Xrotation
				JOINT rShldr
				{
					OFFSET -3.198488 0.000000 0.000000 
					CHANNELS 3 Zrotation Yrotation Xrotation
					JOINT rForeArm
					{
						OFFSET -10.139888 0.000000 0.000000 
						CHANNELS 3 Yrotation Zrotation Xrotation
						JOINT rHand
						{
							OFFSET -8.370511 0.000000 0.000000 
							CHANNELS 3 Zrotation Yrotation Xrotation
							End Site
							{
								OFFSET -4.083176 0.000000 0.000000 
							}
						}
					}
				}
			}
		}
	}
	JOINT lThigh
	{
		OFFSET 5.308129 -1.633274 1.361059 
		CHANNELS 3 Xrotation Zrotation Yrotation
		JOINT lShin
		{
			OFFSET -2.041588 -20.007561 0.000000 
			CHANNELS 3 Xrotation Zrotation Yrotation
			JOINT lFoot
			{
				OFFSET 0.000000 -19.190928 -1.224953 
				CHANNELS 3 Xrotation Yrotation Zrotation
				End Site
				{
					OFFSET 0.000000 -2.449906 4.627600 
				}
			}
		}
	}
	JOINT rThigh
	{
		OFFSET -5.308129 -1.633274 1.361059 
		CHANNELS 3 Xrotation Zrotation Yrotation
		JOINT rShin
		{
			OFFSET 2.041588 -20.007561 0.000000 
			CHANNELS 3 Xrotation Zrotation Yrotation
			JOINT rFoot
			{
				OFFSET 0.000000 -19.190928 -1.224953 
				CHANNELS 3 Xrotation Yrotation Zrotation
				End Site
				{
					OFFSET 0.000000 -2.449906 4.627600 
				}
			}
		}
	}
}
MOTION
Frames: 11
Frame Time: 0.016667
-35.506405 43.097198 37.684914 -4.648930 -0.837081 99.687202 -17.739401 2.742450 -5.218730 16.287100 5.745840 -2.449520 13.089100 3.226840 -3.143050 13.244800 5.851940 -0.874360 2.000000 -2.000000 0.000000 -94.293602 -32.344501 -145.498001 128.750000 -0.123159 0.124037 0.048970 -0.037046 -150.270996 -2.000000 2.000000 0.000000 -106.367996 150.959000 5.124700 -140.449005 0.116958 0.071084 -0.054840 0.011885 -141.169998 -14.058254 12.842575 3.771271 47.062759 2.459907 3.133246 -13.388986 2.953137 -1.000790 -25.909336 -12.133884 13.739203 29.859285 -3.979772 -1.930985 13.910007 -7.171483 -0.297859 
-36.181782 43.752434 36.638817 -4.649790 -1.382160 97.104599 -16.638000 3.116970 -5.343590 17.601999 5.812630 -2.418090 15.299500 3.098410 -2.539190 14.882200 5.742440 -0.439973 2.000000 -2.000000 0.000000 -93.013496 -35.435398 -147.996994 129.296997 -0.122073 0.123157 0.050066 -0.041394 -151.873001 -2.000000 2.000000 0.000000 -108.017998 145.589005 1.197340 -140.557007 0.116807 0.070900 -0.055420 0.018066 -143.386993 -13.864264 12.080013 6.635283 45.925098 2.480548 3.086660 -10.921965 1.645704 -1.280822 -27.047041 -11.493523 11.850348 30.452831 -3.748017 -2.006292 11.436216 -7.771270 -0.834389 
-36.857498 44.417084 35.800888 -4.200660 -1.499870 95.940201 -16.103300 2.977570 -5.429070 18.093100 5.736920 -2.472710 15.516800 3.308520 -2.444100 15.048400 5.710130 -0.341049 2.000000 -2.000000 0.000000 -91.800797 -37.667000 -150.447998 129.824997 -0.121033 0.122298 0.052102 -0.048377 -154.470993 -2.000000 2.000000 0.000000 -108.736000 143.237000 -2.082300 -140.274002 0.117207 0.071384 -0.054688 0.009621 -140.358994 -14.174347 11.642005 8.390420 45.280884 2.450302 3.077492 -5.818802 -2.108831 -1.276104 -28.032188 -10.859630 8.937519 35.624660 -3.475817 -2.339460 9.261623 -10.884851 -0.604813 
-37.533100 45.081856 34.963070 -3.761250 -1.607860 94.783401 -15.558900 2.837490 -5.515920 18.574301 5.660690 -2.518870 15.744400 3.527130 -2.342950 15.224400 5.677590 -0.241337 2.000000 -2.000000 0.000000 -90.422600 -39.860001 -153.035004 130.352005 -0.120002 0.121430 0.054452 -0.055261 -157.067993 -2.000000 2.000000 0.000000 -109.639000 140.914001 -5.504420 -139.990005 0.117609 0.071865 -0.054402 0.001122 -137.322006 -14.560932 11.232156 10.121580 44.772694 2.430193 3.060473 -0.769226 -5.850819 -0.967023 -28.512547 -10.397188 5.969224 39.516808 -3.059186 -2.658897 7.810303 -13.902687 -0.487889 
-38.125568 45.588200 34.162209 -3.321540 -1.559880 94.035797 -16.898500 2.469780 -5.659650 17.023399 5.721600 -2.685890 13.514700 4.320780 -2.193590 13.062500 6.077190 -0.389434 2.000000 -2.000000 0.000000 -89.862801 -37.558399 -154.481003 131.054993 -0.118639 0.120257 0.053194 -0.051703 -155.720993 -2.000000 2.000000 0.000000 -110.037003 143.634995 -7.171180 -141.669998 0.115258 0.068980 -0.054513 0.006043 -139.080002 -15.092638 11.220237 10.086009 44.087387 2.428958 3.044616 6.549919 -9.694971 1.017394 -28.179993 -10.064789 2.920277 43.870804 -2.702623 -2.940290 7.348782 -15.156838 -0.486076 
-38.717930 46.094677 33.361351 -2.881850 -1.502010 93.298203 -18.227900 2.110020 -5.800710 15.462300 5.778020 -2.857310 11.281100 5.127070 -2.070060 10.907700 6.472280 -0.565830 2.000000 -2.000000 0.000000 -89.391098 -35.246899 -155.843002 131.757996 -0.117291 0.119068 0.052028 -0.048143 -154.382996 -2.000000 2.000000 0.000000 69.683701 33.644001 171.225006 -143.339996 0.113006 0.066045 -0.054773 0.010958 -140.837997 -15.682406 11.226689 9.998789 43.540367 2.402927 3.026153 13.995525 -13.247729 3.485251 -27.814478 -9.686156 -0.150446 48.235058 -2.363766 -3.214115 6.867187 -16.366663 -0.442762 
-39.240639 46.381882 32.579361 -2.949920 -1.248340 92.662003 -18.348801 2.062520 -5.649780 15.375900 5.563260 -2.778520 12.328700 5.186480 -2.795340 11.111400 6.304280 -0.963462 2.000000 -2.000000 0.000000 -89.305199 -35.192299 -157.679001 132.207001 -0.116437 0.118300 0.053505 -0.052608 -156.061996 -2.000000 2.000000 0.000000 68.255096 32.849701 168.488007 -144.414001 0.111603 0.064122 -0.055215 0.016162 -142.703003 -16.063370 11.695188 8.124681 43.618095 2.413507 3.028828 12.965467 -12.743021 3.127435 -26.638683 -9.072349 -3.072201 51.855652 -2.090045 -3.435356 8.677030 -14.307659 -0.097338 
-39.763462 46.669098 31.797264 -3.018040 -1.004460 92.035400 -18.469601 2.024410 -5.501890 15.279700 5.348460 -2.709730 13.378000 5.251510 -3.523240 11.305200 6.136500 -1.363330 2.000000 -2.000000 0.000000 -89.219200 -35.137798 -159.509995 132.656998 -0.115589 0.117525 0.064868 -0.066768 -157.731995 -2.000000 2.000000 0.000000 66.894501 32.006302 165.804993 -145.488007 0.110236 0.062174 -0.055826 0.021349 -144.567993 -16.466990 12.153084 6.235295 43.675781 2.426853 3.022928 11.975950 -12.225349 2.775586 -25.479263 -8.398541 -5.996760 55.472355 -1.812307 -3.620627 10.465368 -12.223960 0.203460 
-40.259663 46.781368 30.998316 -2.793260 -0.829092 90.723999 -18.466600 1.950070 -5.198760 15.388600 5.222940 -2.551620 13.768800 5.839320 -3.835290 11.288500 6.320860 -1.576480 2.000000 -2.000000 0.000000 -88.800301 -34.906799 -161.024002 133.535004 -0.113949 0.115989 0.065340 -0.058228 -158.201004 -2.000000 2.000000 0.000000 65.819504 32.234600 164.184998 -145.966995 0.109639 0.061297 -0.056459 0.025623 -146.110992 -16.492382 12.524636 4.474596 44.942455 2.389889 3.089977 8.071466 -5.333322 1.112018 -24.197950 -7.974726 -7.765735 57.936504 -1.649872 -3.733662 12.411574 -8.447088 0.038184 
-40.755970 46.893650 30.199368 -2.578290 -0.653635 89.404404 -18.463499 1.888430 -4.889940 15.497400 5.107090 -2.404590 14.172300 6.414390 -4.148270 11.262100 6.505390 -1.799520 2.000000 -2.000000 0.000000 -88.391098 -34.666100 -162.537994 134.414001 -0.112331 0.114429 0.065811 -0.059424 -158.660004 -2.000000 2.000000 0.000000 64.734596 32.443401 162.544998 -146.436005 0.109061 0.060434 -0.057211 0.029906 -147.664001 -16.522091 12.884072 2.731163 46.129677 2.358994 3.140208 4.459469 1.677455 -0.065255 -23.002239 -7.528999 -9.498174 60.351845 -1.471371 -3.848182 14.437939 -4.660784 -0.256705 
-41.199146 46.753910 29.392666 -2.207170 -0.634295 87.104500 -18.530899 1.968870 -4.591740 15.779800 5.362280 -2.244180 14.478300 6.222870 -3.956780 11.154800 6.555600 -1.786140 2.000000 -2.000000 0.000000 -87.873703 -33.928600 -164.580994 135.264008 -0.110791 0.112897 0.065489 -0.058610 -158.347000 -2.000000 2.000000 0.000000 64.677803 33.105701 163.322998 -146.123001 0.109445 0.061010 -0.057700 0.032374 -148.561996 -16.007996 13.557946 1.837424 47.481491 2.343140 3.172907 2.861006 4.354409 -0.053943 -21.663355 -7.118716 -10.004068 60.831749 -1.461817 -3.864740 14.679808 -1.995617 -0.755200 
